<?xml version="1.0" encoding="UTF-8"?>
<svg id="Calque_2" data-name="Calque 2" xmlns="http://www.w3.org/2000/svg" viewBox="0 0 320 512">
  <g id="Calque_1-2" data-name="Calque 1">
    <path d="M296.01,160l-71.22-.89c-10.77,0-18.4-10.53-15.04-20.76l51.7-108.15c4-15.2-7.5-30.2-23.2-30.2H79.72c-12,0-22.2,8.9-23.8,20.8L.21,260.8c-1.9,14.4,9.3,27.2,23.8,27.2H111.65c15.85,0,27.55,14.8,23.9,30.23l-38.94,164.27c-3.6,15.2,8,29.5,23.3,29.5,8.4,0,16.4-4.4,20.8-12L316.71,196c9.3-15.9-2.2-36-20.7-36Zm-159.52,18.09c-26.78,0-48.5-20.46-48.5-45.69s21.72-45.69,48.5-45.69,48.5,20.46,48.5,45.69-21.71,45.69-48.5,45.69Z"/>
  </g>
</svg>