<?xml version="1.0" encoding="utf-8"?>
<!-- Generator: Adobe Illustrator 27.0.1, SVG Export Plug-In . SVG Version: 6.00 Build 0)  -->
<svg version="1.1" id="Calque_1" xmlns="http://www.w3.org/2000/svg" xmlns:xlink="http://www.w3.org/1999/xlink" x="0px" y="0px"
	 viewBox="0 0 320 512" style="enable-background:new 0 0 320 512;" xml:space="preserve">
<style type="text/css">
	.st0{fill:#FFFFFF;}
	.st1{fill:#FFB703;}
	.st2{display:none;}
</style>
<g id="XMLID_00000050640286092602656510000002255785130000941451_">
	<g>
		<ellipse class="st0" cx="136.5" cy="132.4" rx="48.5" ry="45.7"/>
		<path class="st1" d="M296,160c18.5,0,30,20.1,20.7,36l-176,304c-4.4,7.6-12.4,12-20.8,12c-15.3,0-26.9-14.3-23.3-29.5l38.9-164.3
			c3.6-15.4-8.1-30.2-23.9-30.2H24c-14.5,0-25.7-12.8-23.8-27.2l55.7-240C57.5,8.9,67.7,0,79.7,0h158.5c15.7,0,27.2,15,23.2,30.2
			l-51.7,108.2c-3.4,10.2,4.3,20.8,15,20.8L296,160z M185,132.4c0-25.2-21.7-45.7-48.5-45.7c-26.8,0-48.5,20.5-48.5,45.7
			s21.7,45.7,48.5,45.7C163.3,178.1,185,157.6,185,132.4z"/>
	</g>
	<g>
	</g>
</g>
<ellipse class="st0" cx="136.5" cy="132.4" rx="48.5" ry="45.7"/>
<ellipse class="st2" cx="136.5" cy="132.4" rx="48.5" ry="45.7"/>
</svg>
